# xmcd
#
# Track frame offsets:
#	150
#	12500
#	20559
#	33059
#	44979
#	61493
#	78416
#	91005
#	105309
#	119878
#
# Disc length: 1842 seconds
#
# Revision: 2
# Processed by: cddbd v1.5.2PL0 Copyright (c) Steve Scherf et al.
# Submitted via: audiograbber 1.83.01
#
DISCID=7e07300a
DTITLE=Perkele - A way out
DYEAR=2013
DGENRE=
TTITLE0=A Way Out
TTITLE1=Smash It
TTITLE2=Side By Side
TTITLE3=Give Me Your Money
TTITLE4=Dancing Boots
TTITLE5=Believe
TTITLE6=He Loves Violence
TTITLE7=Leave Me Alone
TTITLE8=Dedicated To Nothing
TTITLE9=Above You All
EXTD=
EXTT0=
EXTT1=
EXTT2=
EXTT3=
EXTT4=
EXTT5=
EXTT6=
EXTT7=
EXTT8=
EXTT9=
PLAYORDER=
